<mxfile host="app.diagrams.net" modified="2022-05-14T15:33:34.413Z" agent="5.0 (Windows NT 10.0; Win64; x64) AppleWebKit/537.36 (KHTML, like Gecko) Chrome/100.0.4896.127 Safari/537.36 OPR/86.0.4363.59" etag="Zs2x452f7_HbDELLP_C4" version="18.0.4" type="github">
  <diagram name="Page-1" id="c7488fd3-1785-93aa-aadb-54a6760d102a">
    <mxGraphModel dx="828" dy="496" grid="1" gridSize="10" guides="1" tooltips="1" connect="1" arrows="1" fold="1" page="1" pageScale="1" pageWidth="1100" pageHeight="850" background="none" math="0" shadow="0">
      <root>
        <mxCell id="0" />
        <mxCell id="1" parent="0" />
        <mxCell id="2b4e8129b02d487f-1" value="Pool" style="swimlane;html=1;childLayout=stackLayout;horizontal=1;startSize=20;horizontalStack=0;rounded=0;shadow=0;labelBackgroundColor=none;strokeWidth=1;fontFamily=Verdana;fontSize=10;align=center;" parent="1" vertex="1">
          <mxGeometry x="90" y="80" width="920" height="560" as="geometry" />
        </mxCell>
        <mxCell id="2b4e8129b02d487f-2" value="Usuário" style="swimlane;html=1;startSize=20;horizontal=0;" parent="2b4e8129b02d487f-1" vertex="1">
          <mxGeometry y="20" width="920" height="240" as="geometry">
            <mxRectangle y="20" width="680" height="20" as="alternateBounds" />
          </mxGeometry>
        </mxCell>
        <mxCell id="2b4e8129b02d487f-18" style="edgeStyle=orthogonalEdgeStyle;rounded=0;html=1;labelBackgroundColor=none;startArrow=none;startFill=0;startSize=5;endArrow=classicThin;endFill=1;endSize=5;jettySize=auto;orthogonalLoop=1;strokeWidth=1;fontFamily=Verdana;fontSize=8" parent="2b4e8129b02d487f-2" source="2b4e8129b02d487f-5" target="2b4e8129b02d487f-6" edge="1">
          <mxGeometry relative="1" as="geometry" />
        </mxCell>
        <mxCell id="2b4e8129b02d487f-5" value="" style="ellipse;whiteSpace=wrap;html=1;rounded=0;shadow=0;labelBackgroundColor=none;strokeWidth=1;fontFamily=Verdana;fontSize=8;align=center;" parent="2b4e8129b02d487f-2" vertex="1">
          <mxGeometry x="60" y="60" width="30" height="30" as="geometry" />
        </mxCell>
        <mxCell id="2b4e8129b02d487f-6" value="Encontra Problema" style="rounded=1;whiteSpace=wrap;html=1;shadow=0;labelBackgroundColor=none;strokeWidth=1;fontFamily=Verdana;fontSize=8;align=center;aspect=fixed;" parent="2b4e8129b02d487f-2" vertex="1">
          <mxGeometry x="130" y="53.84999999999997" width="80" height="42.3" as="geometry" />
        </mxCell>
        <mxCell id="2b4e8129b02d487f-20" value="Sim" style="edgeStyle=orthogonalEdgeStyle;rounded=0;html=1;labelBackgroundColor=none;startArrow=none;startFill=0;startSize=5;endArrow=classicThin;endFill=1;endSize=5;jettySize=auto;orthogonalLoop=1;strokeWidth=1;fontFamily=Verdana;fontSize=8;spacingTop=0;spacingBottom=0;labelBorderColor=none;labelPosition=left;verticalLabelPosition=top;align=right;verticalAlign=bottom;" parent="2b4e8129b02d487f-2" source="xkUjx0h_O5jFEAEdqRdE-6" target="2b4e8129b02d487f-8" edge="1">
          <mxGeometry relative="1" as="geometry" />
        </mxCell>
        <mxCell id="xkUjx0h_O5jFEAEdqRdE-9" style="edgeStyle=orthogonalEdgeStyle;rounded=0;orthogonalLoop=1;jettySize=auto;html=1;entryX=0;entryY=0.5;entryDx=0;entryDy=0;labelBorderColor=none;fontSize=10;" edge="1" parent="2b4e8129b02d487f-2" source="2b4e8129b02d487f-7" target="xkUjx0h_O5jFEAEdqRdE-6">
          <mxGeometry relative="1" as="geometry" />
        </mxCell>
        <mxCell id="2b4e8129b02d487f-7" value="Verifica KB (Base de Conhecimento)&amp;nbsp;" style="rounded=1;whiteSpace=wrap;html=1;shadow=0;labelBackgroundColor=none;strokeWidth=1;fontFamily=Verdana;fontSize=8;align=center;aspect=fixed;" parent="2b4e8129b02d487f-2" vertex="1">
          <mxGeometry x="260" y="53.84999999999997" width="80" height="42.3" as="geometry" />
        </mxCell>
        <mxCell id="2b4e8129b02d487f-8" value="OK" style="ellipse;whiteSpace=wrap;html=1;rounded=0;shadow=0;labelBackgroundColor=none;strokeWidth=2;fontFamily=Verdana;fontSize=8;align=center;" parent="2b4e8129b02d487f-2" vertex="1">
          <mxGeometry x="570" y="60" width="30" height="30" as="geometry" />
        </mxCell>
        <mxCell id="2b4e8129b02d487f-11" value="" style="ellipse;whiteSpace=wrap;html=1;rounded=0;shadow=0;labelBackgroundColor=none;strokeWidth=2;fontFamily=Verdana;fontSize=8;align=center;" parent="2b4e8129b02d487f-2" vertex="1">
          <mxGeometry x="873" y="60" width="30" height="30" as="geometry" />
        </mxCell>
        <mxCell id="2b4e8129b02d487f-24" style="edgeStyle=orthogonalEdgeStyle;rounded=0;html=1;labelBackgroundColor=none;startArrow=none;startFill=0;startSize=5;endArrow=classicThin;endFill=1;endSize=5;jettySize=auto;orthogonalLoop=1;strokeWidth=1;fontFamily=Verdana;fontSize=8;entryX=0;entryY=0.5;entryDx=0;entryDy=0;" parent="2b4e8129b02d487f-2" source="2b4e8129b02d487f-6" target="2b4e8129b02d487f-7" edge="1">
          <mxGeometry relative="1" as="geometry" />
        </mxCell>
        <mxCell id="xkUjx0h_O5jFEAEdqRdE-8" style="edgeStyle=orthogonalEdgeStyle;rounded=0;orthogonalLoop=1;jettySize=auto;html=1;entryX=1;entryY=0.5;entryDx=0;entryDy=0;labelBorderColor=none;fontSize=10;" edge="1" parent="2b4e8129b02d487f-2" source="xkUjx0h_O5jFEAEdqRdE-4" target="2b4e8129b02d487f-8">
          <mxGeometry relative="1" as="geometry" />
        </mxCell>
        <mxCell id="xkUjx0h_O5jFEAEdqRdE-4" value="" style="rounded=1;whiteSpace=wrap;html=1;shadow=0;labelBackgroundColor=none;strokeWidth=1;fontFamily=Verdana;fontSize=8;align=center;" vertex="1" parent="2b4e8129b02d487f-2">
          <mxGeometry x="683" y="56.49999999999997" width="70" height="37" as="geometry" />
        </mxCell>
        <mxCell id="xkUjx0h_O5jFEAEdqRdE-5" value="" style="shape=mxgraph.bpmn.shape;html=1;verticalLabelPosition=bottom;labelBackgroundColor=#ffffff;verticalAlign=top;perimeter=rhombusPerimeter;background=gateway;outline=none;symbol=parallelGw;rounded=1;shadow=0;strokeWidth=1;fontFamily=Verdana;fontSize=8;align=center;" vertex="1" parent="2b4e8129b02d487f-2">
          <mxGeometry x="813" y="60" width="30" height="30" as="geometry" />
        </mxCell>
        <mxCell id="xkUjx0h_O5jFEAEdqRdE-6" value="Encontrou&amp;nbsp; Solução ?" style="rhombus;whiteSpace=wrap;html=1;fontSize=10;aspect=fixed;labelPosition=center;verticalLabelPosition=top;align=center;verticalAlign=bottom;" vertex="1" parent="2b4e8129b02d487f-2">
          <mxGeometry x="420" y="55" width="40" height="40" as="geometry" />
        </mxCell>
        <mxCell id="xkUjx0h_O5jFEAEdqRdE-23" value="Abre Ticket - Service Desk" style="rounded=1;whiteSpace=wrap;html=1;fontSize=10;" vertex="1" parent="2b4e8129b02d487f-2">
          <mxGeometry x="255" y="140" width="80" height="40" as="geometry" />
        </mxCell>
        <mxCell id="2b4e8129b02d487f-25" value="Não" style="edgeStyle=orthogonalEdgeStyle;rounded=0;html=1;labelBackgroundColor=none;startArrow=none;startFill=0;startSize=5;endArrow=classicThin;endFill=1;endSize=5;jettySize=auto;orthogonalLoop=1;strokeWidth=1;fontFamily=Verdana;fontSize=8;exitX=0.5;exitY=1;exitDx=0;exitDy=0;labelBorderColor=none;labelPosition=left;verticalLabelPosition=top;align=right;verticalAlign=bottom;entryX=1;entryY=0.5;entryDx=0;entryDy=0;" parent="2b4e8129b02d487f-2" source="xkUjx0h_O5jFEAEdqRdE-6" target="xkUjx0h_O5jFEAEdqRdE-23" edge="1">
          <mxGeometry x="-0.9364" y="-15" relative="1" as="geometry">
            <mxPoint as="offset" />
            <mxPoint x="90" y="170" as="targetPoint" />
            <Array as="points">
              <mxPoint x="440" y="160" />
            </Array>
          </mxGeometry>
        </mxCell>
        <mxCell id="2b4e8129b02d487f-3" value="N1" style="swimlane;html=1;startSize=20;horizontal=0;spacing=0;labelPosition=center;verticalLabelPosition=middle;align=center;verticalAlign=middle;" parent="2b4e8129b02d487f-1" vertex="1">
          <mxGeometry y="260" width="920" height="150" as="geometry" />
        </mxCell>
        <mxCell id="2b4e8129b02d487f-26" style="edgeStyle=orthogonalEdgeStyle;rounded=0;html=1;labelBackgroundColor=none;startArrow=none;startFill=0;startSize=5;endArrow=classicThin;endFill=1;endSize=5;jettySize=auto;orthogonalLoop=1;strokeWidth=1;fontFamily=Verdana;fontSize=8" parent="2b4e8129b02d487f-3" source="xkUjx0h_O5jFEAEdqRdE-1" target="2b4e8129b02d487f-13" edge="1">
          <mxGeometry relative="1" as="geometry" />
        </mxCell>
        <mxCell id="2b4e8129b02d487f-12" value="Recebe Ticket" style="rounded=1;whiteSpace=wrap;html=1;shadow=0;labelBackgroundColor=none;strokeWidth=1;fontFamily=Verdana;fontSize=10;align=center;" parent="2b4e8129b02d487f-3" vertex="1">
          <mxGeometry x="58" y="50" width="80" height="40" as="geometry" />
        </mxCell>
        <mxCell id="2b4e8129b02d487f-13" value="Encontrou Solução ?" style="strokeWidth=1;html=1;shape=mxgraph.flowchart.decision;whiteSpace=wrap;rounded=1;shadow=0;labelBackgroundColor=none;fontFamily=Verdana;fontSize=8;align=center;labelPosition=center;verticalLabelPosition=top;verticalAlign=bottom;" parent="2b4e8129b02d487f-3" vertex="1">
          <mxGeometry x="300" y="54.999999999999915" width="30" height="30" as="geometry" />
        </mxCell>
        <mxCell id="xkUjx0h_O5jFEAEdqRdE-1" value="Consulta KB - Problemas Conhecidos" style="rounded=1;whiteSpace=wrap;html=1;fontSize=10;" vertex="1" parent="2b4e8129b02d487f-3">
          <mxGeometry x="173" y="50" width="80" height="40" as="geometry" />
        </mxCell>
        <mxCell id="xkUjx0h_O5jFEAEdqRdE-2" value="" style="edgeStyle=orthogonalEdgeStyle;rounded=0;html=1;labelBackgroundColor=none;startArrow=none;startFill=0;startSize=5;endArrow=none;endFill=1;endSize=5;jettySize=auto;orthogonalLoop=1;strokeWidth=1;fontFamily=Verdana;fontSize=8" edge="1" parent="2b4e8129b02d487f-3" source="2b4e8129b02d487f-12" target="xkUjx0h_O5jFEAEdqRdE-1">
          <mxGeometry relative="1" as="geometry">
            <mxPoint x="308.0000000000001" y="308.5" as="sourcePoint" />
            <mxPoint x="508" y="308.5" as="targetPoint" />
          </mxGeometry>
        </mxCell>
        <mxCell id="xkUjx0h_O5jFEAEdqRdE-15" value="&lt;font style=&quot;font-size: 10px;&quot;&gt;Comunica Usuário&lt;br&gt;&lt;/font&gt;" style="whiteSpace=wrap;html=1;fontSize=8;fontFamily=Verdana;strokeWidth=1;rounded=1;shadow=0;labelBackgroundColor=none;" vertex="1" parent="2b4e8129b02d487f-3">
          <mxGeometry x="540" y="50" width="80" height="40" as="geometry" />
        </mxCell>
        <mxCell id="xkUjx0h_O5jFEAEdqRdE-13" value="&lt;font style=&quot;font-size: 10px;&quot;&gt;Categoriza Ticket.&lt;/font&gt;" style="whiteSpace=wrap;html=1;fontSize=8;fontFamily=Verdana;strokeWidth=1;rounded=1;shadow=0;labelBackgroundColor=none;" vertex="1" parent="2b4e8129b02d487f-3">
          <mxGeometry x="410" y="50" width="80" height="40" as="geometry" />
        </mxCell>
        <mxCell id="xkUjx0h_O5jFEAEdqRdE-14" value="Sim" style="edgeStyle=orthogonalEdgeStyle;rounded=0;orthogonalLoop=1;jettySize=auto;html=1;labelBorderColor=none;fontSize=10;labelPosition=left;verticalLabelPosition=top;align=right;verticalAlign=bottom;" edge="1" parent="2b4e8129b02d487f-3" source="2b4e8129b02d487f-13" target="xkUjx0h_O5jFEAEdqRdE-13">
          <mxGeometry relative="1" as="geometry" />
        </mxCell>
        <mxCell id="xkUjx0h_O5jFEAEdqRdE-16" value="" style="edgeStyle=orthogonalEdgeStyle;rounded=0;orthogonalLoop=1;jettySize=auto;html=1;labelBorderColor=none;fontSize=10;" edge="1" parent="2b4e8129b02d487f-3" source="xkUjx0h_O5jFEAEdqRdE-13" target="xkUjx0h_O5jFEAEdqRdE-15">
          <mxGeometry relative="1" as="geometry" />
        </mxCell>
        <mxCell id="2b4e8129b02d487f-4" value="Lane 3" style="swimlane;html=1;startSize=20;horizontal=0;" parent="2b4e8129b02d487f-1" vertex="1">
          <mxGeometry y="410" width="920" height="150" as="geometry" />
        </mxCell>
        <mxCell id="2b4e8129b02d487f-28" style="edgeStyle=orthogonalEdgeStyle;rounded=0;html=1;labelBackgroundColor=none;startArrow=none;startFill=0;startSize=5;endArrow=classicThin;endFill=1;endSize=5;jettySize=auto;orthogonalLoop=1;strokeWidth=1;fontFamily=Verdana;fontSize=8;" parent="2b4e8129b02d487f-4" source="2b4e8129b02d487f-14" target="2b4e8129b02d487f-15" edge="1">
          <mxGeometry relative="1" as="geometry" />
        </mxCell>
        <mxCell id="2b4e8129b02d487f-14" value="" style="rounded=1;whiteSpace=wrap;html=1;shadow=0;labelBackgroundColor=none;strokeWidth=1;fontFamily=Verdana;fontSize=8;align=center;" parent="2b4e8129b02d487f-4" vertex="1">
          <mxGeometry x="493" y="57.00000000000003" width="70" height="37" as="geometry" />
        </mxCell>
        <mxCell id="2b4e8129b02d487f-29" value="Yes" style="edgeStyle=orthogonalEdgeStyle;rounded=0;html=1;entryX=0;entryY=0.5;labelBackgroundColor=none;startArrow=none;startFill=0;startSize=5;endArrow=classicThin;endFill=1;endSize=5;jettySize=auto;orthogonalLoop=1;strokeWidth=1;fontFamily=Verdana;fontSize=8" parent="2b4e8129b02d487f-4" source="2b4e8129b02d487f-15" target="2b4e8129b02d487f-16" edge="1">
          <mxGeometry x="-0.5006" y="6" relative="1" as="geometry">
            <mxPoint as="offset" />
          </mxGeometry>
        </mxCell>
        <mxCell id="2b4e8129b02d487f-15" value="" style="strokeWidth=1;html=1;shape=mxgraph.flowchart.decision;whiteSpace=wrap;rounded=1;shadow=0;labelBackgroundColor=none;fontFamily=Verdana;fontSize=8;align=center;" parent="2b4e8129b02d487f-4" vertex="1">
          <mxGeometry x="593" y="60.500000000000064" width="30" height="30" as="geometry" />
        </mxCell>
        <mxCell id="2b4e8129b02d487f-30" style="edgeStyle=orthogonalEdgeStyle;rounded=0;html=1;labelBackgroundColor=none;startArrow=none;startFill=0;startSize=5;endArrow=classicThin;endFill=1;endSize=5;jettySize=auto;orthogonalLoop=1;strokeColor=#000000;strokeWidth=1;fontFamily=Verdana;fontSize=8;fontColor=#000000;" parent="2b4e8129b02d487f-4" source="2b4e8129b02d487f-16" target="2b4e8129b02d487f-17" edge="1">
          <mxGeometry relative="1" as="geometry" />
        </mxCell>
        <mxCell id="2b4e8129b02d487f-16" value="" style="shape=mxgraph.bpmn.shape;html=1;verticalLabelPosition=bottom;labelBackgroundColor=#ffffff;verticalAlign=top;perimeter=rhombusPerimeter;background=gateway;outline=none;symbol=parallelGw;rounded=1;shadow=0;strokeWidth=1;fontFamily=Verdana;fontSize=8;align=center;" parent="2b4e8129b02d487f-4" vertex="1">
          <mxGeometry x="703" y="60.500000000000064" width="30" height="30" as="geometry" />
        </mxCell>
        <mxCell id="2b4e8129b02d487f-17" value="" style="rounded=1;whiteSpace=wrap;html=1;shadow=0;labelBackgroundColor=none;strokeWidth=1;fontFamily=Verdana;fontSize=8;align=center;" parent="2b4e8129b02d487f-4" vertex="1">
          <mxGeometry x="793" y="57" width="70" height="37" as="geometry" />
        </mxCell>
        <mxCell id="2b4e8129b02d487f-31" style="edgeStyle=orthogonalEdgeStyle;rounded=0;html=1;entryX=0.5;entryY=1;labelBackgroundColor=none;startArrow=none;startFill=0;startSize=5;endArrow=classicThin;endFill=1;endSize=5;jettySize=auto;orthogonalLoop=1;strokeWidth=1;fontFamily=Verdana;fontSize=8" parent="2b4e8129b02d487f-1" source="2b4e8129b02d487f-17" edge="1">
          <mxGeometry relative="1" as="geometry">
            <mxPoint x="828" y="110" as="targetPoint" />
          </mxGeometry>
        </mxCell>
        <mxCell id="2b4e8129b02d487f-33" style="edgeStyle=orthogonalEdgeStyle;rounded=0;html=1;labelBackgroundColor=none;startArrow=none;startFill=0;startSize=5;endArrow=classicThin;endFill=1;endSize=5;jettySize=auto;orthogonalLoop=1;strokeWidth=1;fontFamily=Verdana;fontSize=8" parent="2b4e8129b02d487f-1" source="2b4e8129b02d487f-16" edge="1">
          <mxGeometry relative="1" as="geometry">
            <mxPoint x="718" y="113.5" as="targetPoint" />
          </mxGeometry>
        </mxCell>
        <mxCell id="xkUjx0h_O5jFEAEdqRdE-17" style="edgeStyle=orthogonalEdgeStyle;rounded=0;orthogonalLoop=1;jettySize=auto;html=1;entryX=0.5;entryY=1;entryDx=0;entryDy=0;labelBorderColor=none;fontSize=10;" edge="1" parent="2b4e8129b02d487f-1" source="xkUjx0h_O5jFEAEdqRdE-15" target="xkUjx0h_O5jFEAEdqRdE-4">
          <mxGeometry relative="1" as="geometry" />
        </mxCell>
        <mxCell id="xkUjx0h_O5jFEAEdqRdE-24" style="edgeStyle=orthogonalEdgeStyle;rounded=0;orthogonalLoop=1;jettySize=auto;html=1;entryX=0.5;entryY=0;entryDx=0;entryDy=0;labelBorderColor=none;fontSize=10;" edge="1" parent="2b4e8129b02d487f-1" source="xkUjx0h_O5jFEAEdqRdE-23" target="2b4e8129b02d487f-12">
          <mxGeometry relative="1" as="geometry" />
        </mxCell>
      </root>
    </mxGraphModel>
  </diagram>
</mxfile>
